<svg width="60" height="60" viewBox="0 0 60 60" fill="none" xmlns="http://www.w3.org/2000/svg">
<circle cx="30" cy="30" r="30" fill="#EE413F" fill-opacity="0.6"/>
<path d="M43.125 35.25C46.0245 35.25 48.375 32.8995 48.375 30C48.375 27.1005 46.0245 24.75 43.125 24.75C40.2255 24.75 37.875 27.1005 37.875 30C37.875 32.8995 40.2255 35.25 43.125 35.25Z" fill="white"/>
<path d="M37.875 48.375H35.25V41.8125C35.25 40.072 34.5586 38.4028 33.3279 37.1721C32.0972 35.9414 30.428 35.25 28.6875 35.25H20.8125C19.072 35.25 17.4028 35.9414 16.1721 37.1721C14.9414 38.4028 14.25 40.072 14.25 41.8125V48.375H11.625V41.8125C11.625 39.3758 12.593 37.0389 14.316 35.316C16.0389 33.593 18.3758 32.625 20.8125 32.625H28.6875C31.1242 32.625 33.4611 33.593 35.184 35.316C36.907 37.0389 37.875 39.3758 37.875 41.8125V48.375ZM24.75 14.25C26.0479 14.25 27.3167 14.6349 28.3959 15.356C29.4751 16.0771 30.3163 17.102 30.813 18.3011C31.3097 19.5003 31.4396 20.8198 31.1864 22.0928C30.9332 23.3658 30.3082 24.5351 29.3904 25.4529C28.4726 26.3707 27.3033 26.9957 26.0303 27.2489C24.7573 27.5021 23.4378 27.3722 22.2386 26.8755C21.0395 26.3788 20.0146 25.5376 19.2935 24.4584C18.5724 23.3792 18.1875 22.1104 18.1875 20.8125C18.1875 19.072 18.8789 17.4028 20.1096 16.1721C21.3403 14.9414 23.0095 14.25 24.75 14.25ZM24.75 11.625C22.9329 11.625 21.1566 12.1638 19.6457 13.1734C18.1348 14.1829 16.9572 15.6178 16.2619 17.2966C15.5665 18.9754 15.3845 20.8227 15.739 22.6049C16.0935 24.3871 16.9686 26.0241 18.2535 27.309C19.5384 28.5939 21.1754 29.469 22.9576 29.8235C24.7398 30.178 26.5871 29.996 28.2659 29.3006C29.9447 28.6053 31.3796 27.4277 32.3891 25.9168C33.3987 24.4059 33.9375 22.6296 33.9375 20.8125C33.9375 18.3758 32.9695 16.0389 31.2465 14.316C29.5236 12.593 27.1867 11.625 24.75 11.625Z" fill="white"/>
</svg>
