<svg width="60" height="60" viewBox="0 0 60 60" fill="none" xmlns="http://www.w3.org/2000/svg">
<circle cx="30" cy="30" r="30" fill="#EE413F" fill-opacity="0.6"/>
<path d="M33.625 23.125V26.875H28L22.9563 24.6625L20.5 32.0313V49.375H13V30.625L15.9625 21.9438C16.1293 21.4466 16.3983 20.9898 16.7523 20.603C17.1063 20.2161 17.5374 19.9076 18.0178 19.6974C18.4982 19.4872 19.0174 19.38 19.5418 19.3826C20.0661 19.3852 20.5842 19.4976 21.0625 19.7125L28.8438 23.1438L33.625 23.125ZM22.375 10C20.3125 10 18.625 11.6875 18.625 13.75C18.625 15.8125 20.3125 17.5 22.375 17.5C24.4375 17.5 26.125 15.8125 26.125 13.75C26.125 11.6875 24.4375 10 22.375 10ZM24.25 43.75H46.75V40H24.25V43.75ZM43.9375 38.125C45.4938 38.125 46.75 36.8688 46.75 35.3125C46.75 33.7563 45.4938 32.5 43.9375 32.5C42.3813 32.5 41.125 33.7563 41.125 35.3125C41.125 36.8688 42.3813 38.125 43.9375 38.125ZM31.75 30.625C31.75 29.5938 30.9062 28.75 29.875 28.75H24.25V32.5H28V34.375C28 36.4375 29.6875 38.125 31.75 38.125H35.5C37.5625 38.125 39.25 36.4375 39.25 34.375V28.75H35.5V32.5H31.75V30.625Z" fill="white"/>
</svg>
