<svg width="60" height="60" viewBox="0 0 60 60" fill="none" xmlns="http://www.w3.org/2000/svg">
<circle cx="30" cy="30" r="30" fill="#EE413F" fill-opacity="0.6"/>
<path fill-rule="evenodd" clip-rule="evenodd" d="M32.5154 12.0156C32.5154 11.481 32.303 10.9684 31.925 10.5904C31.547 10.2124 31.0343 10 30.4997 10C29.9652 10 29.4525 10.2124 29.0745 10.5904C28.6965 10.9684 28.4841 11.481 28.4841 12.0156V15.375H25.8396C25.0199 15.375 24.2164 15.59 23.5042 15.9931L20.0427 17.9738C19.9404 18.0323 19.8246 18.0629 19.7067 18.0625H13.7029C13.1683 18.0625 12.6556 18.2749 12.2776 18.6529C11.8996 19.0309 11.6872 19.5435 11.6872 20.0781C11.6872 20.6127 11.8996 21.1254 12.2776 21.5034C12.6556 21.8814 13.1683 22.0938 13.7029 22.0938H14.8531L9.17712 34.7035C9.00947 35.0766 8.95928 35.4918 9.0332 35.894C9.10712 36.2963 9.30167 36.6665 9.591 36.9556L11.0154 35.5312L9.591 36.9556V36.9583L9.59637 36.9637L9.60175 36.9691L9.61787 36.9852L9.66087 37.0255L9.78181 37.133C10.347 37.6067 10.9658 38.0126 11.6254 38.3424C13.3178 39.1675 15.1796 39.5853 17.0622 39.5625C19.4272 39.5625 21.244 38.9712 22.4991 38.3424C23.1587 38.0126 23.7775 37.6067 24.3427 37.133L24.4636 37.0255L24.5066 36.9852L24.5227 36.9691L24.5281 36.9637L24.5308 36.9583L23.1091 35.5312L24.5335 36.9556C24.8228 36.6665 25.0174 36.2963 25.0913 35.894C25.1652 35.4918 25.115 35.0766 24.9474 34.7035L19.2714 22.0938H19.7067C20.5264 22.0938 21.33 21.8787 22.0422 21.4756L25.5064 19.4949C25.6078 19.4369 25.7227 19.4063 25.8396 19.4062H28.4841V44.9375H21.7654C21.2308 44.9375 20.7181 45.1499 20.3401 45.5279C19.9621 45.9059 19.7497 46.4185 19.7497 46.9531C19.7497 47.4877 19.9621 48.0004 20.3401 48.3784C20.7181 48.7564 21.2308 48.9688 21.7654 48.9688H39.2341C39.7687 48.9688 40.2814 48.7564 40.6594 48.3784C41.0374 48.0004 41.2497 47.4877 41.2497 46.9531C41.2497 46.4185 41.0374 45.9059 40.6594 45.5279C40.2814 45.1499 39.7687 44.9375 39.2341 44.9375H32.5154V19.4062H35.1599C35.2768 19.4063 35.3916 19.4369 35.4931 19.4949L38.96 21.4729C39.6695 21.8814 40.4731 22.0938 41.2927 22.0938H41.7281L36.0521 34.7035C35.8845 35.0766 35.8343 35.4918 35.9082 35.894C35.9821 36.2963 36.1767 36.6665 36.466 36.9556L37.8904 35.5312L36.466 36.9556V36.9583L36.4714 36.9637L36.4767 36.9691L36.4929 36.9852L36.5359 37.0255L36.6568 37.133C37.2221 37.6067 37.8408 38.0126 38.5004 38.3424C40.1928 39.1675 42.0546 39.5853 43.9372 39.5625C46.3022 39.5625 48.119 38.9712 49.3741 38.3424C50.0337 38.0127 50.6525 37.6068 51.2177 37.133L51.3386 37.0255L51.3655 36.9986L51.3816 36.9852L51.3977 36.9691L51.4031 36.9637L51.4058 36.9583L49.9841 35.5312L51.4085 36.9556C51.6978 36.6665 51.8924 36.2963 51.9663 35.894C52.0402 35.4918 51.99 35.0766 51.8224 34.7035L46.1491 22.0938H47.2966C47.8312 22.0938 48.3439 21.8814 48.7219 21.5034C49.0999 21.1254 49.3122 20.6127 49.3122 20.0781C49.3122 19.5435 49.0999 19.0309 48.7219 18.6529C48.3439 18.2749 47.8312 18.0625 47.2966 18.0625H41.2927C41.1758 18.0624 41.061 18.0319 40.9595 17.9738L37.4926 15.9958C36.7831 15.5899 35.98 15.3759 35.1626 15.375H32.5154V12.0156ZM13.5551 34.7976C14.321 35.1604 15.4847 35.5312 17.0622 35.5312C18.6398 35.5312 19.8035 35.1604 20.5694 34.7976L17.0622 27.0038L13.5551 34.7976ZM40.4301 34.7976C41.196 35.1604 42.3597 35.5312 43.9372 35.5312C45.5148 35.5312 46.6785 35.1604 47.4444 34.7976L43.9372 27.0038L40.4301 34.7976Z" fill="white"/>
</svg>
