<svg width="60" height="60" viewBox="0 0 60 60" fill="none" xmlns="http://www.w3.org/2000/svg">
<circle cx="30" cy="30" r="30" fill="#EE413F" fill-opacity="0.6"/>
<path fill-rule="evenodd" clip-rule="evenodd" d="M22 12.125C22 11.2962 22.3292 10.5013 22.9153 9.91529C23.5013 9.32924 24.2962 9 25.125 9H33.4583C34.2871 9 35.082 9.32924 35.668 9.91529C36.2541 10.5013 36.5833 11.2962 36.5833 12.125V14.2083C36.5833 15.0371 36.2541 15.832 35.668 16.418C35.082 17.0041 34.2871 17.3333 33.4583 17.3333H25.125C24.2962 17.3333 23.5013 17.0041 22.9153 16.418C22.3292 15.832 22 15.0371 22 14.2083V12.125ZM25.125 11.0833C24.8487 11.0833 24.5838 11.1931 24.3884 11.3884C24.1931 11.5838 24.0833 11.8487 24.0833 12.125V14.2083C24.0833 14.4846 24.1931 14.7496 24.3884 14.9449C24.5838 15.1403 24.8487 15.25 25.125 15.25H33.4583C33.7346 15.25 33.9996 15.1403 34.1949 14.9449C34.3903 14.7496 34.5 14.4846 34.5 14.2083V12.125C34.5 11.8487 34.3903 11.5838 34.1949 11.3884C33.9996 11.1931 33.7346 11.0833 33.4583 11.0833H25.125Z" fill="white"/>
<path fill-rule="evenodd" clip-rule="evenodd" d="M23.3333 12.125H18.125C17.2962 12.125 16.5013 12.4542 15.9153 13.0403C15.3292 13.6263 15 14.4212 15 15.25V47.5417C15 48.3705 15.3292 49.1653 15.9153 49.7514C16.5013 50.3374 17.2962 50.6667 18.125 50.6667H41.0417C41.8705 50.6667 42.6653 50.3374 43.2514 49.7514C43.8374 49.1653 44.1667 48.3705 44.1667 47.5417V15.25C44.1667 14.4212 43.8374 13.6263 43.2514 13.0403C42.6653 12.4542 41.8705 12.125 41.0417 12.125H35.8333V14.2083C35.8333 14.7609 35.6138 15.2908 35.2231 15.6815C34.8324 16.0722 34.3025 16.2917 33.75 16.2917H25.4167C24.8641 16.2917 24.3342 16.0722 23.9435 15.6815C23.5528 15.2908 23.3333 14.7609 23.3333 14.2083V12.125ZM20.2083 26.7083C20.2083 26.4321 20.3181 26.1671 20.5134 25.9718C20.7088 25.7764 20.9737 25.6667 21.25 25.6667H28.5417C28.8179 25.6667 29.0829 25.7764 29.2782 25.9718C29.4736 26.1671 29.5833 26.4321 29.5833 26.7083C29.5833 26.9846 29.4736 27.2496 29.2782 27.4449C29.0829 27.6403 28.8179 27.75 28.5417 27.75H21.25C20.9737 27.75 20.7088 27.6403 20.5134 27.4449C20.3181 27.2496 20.2083 26.9846 20.2083 26.7083ZM21.25 20.4583C20.9737 20.4583 20.7088 20.5681 20.5134 20.7634C20.3181 20.9588 20.2083 21.2237 20.2083 21.5C20.2083 21.7763 20.3181 22.0412 20.5134 22.2366C20.7088 22.4319 20.9737 22.5417 21.25 22.5417H37.3958C37.6721 22.5417 37.9371 22.4319 38.1324 22.2366C38.3278 22.0412 38.4375 21.7763 38.4375 21.5C38.4375 21.2237 38.3278 20.9588 38.1324 20.7634C37.9371 20.5681 37.6721 20.4583 37.3958 20.4583H21.25ZM22.2917 35.0417V37.125H24.375V35.0417H22.2917ZM21.25 32.9583C20.9737 32.9583 20.7088 33.0681 20.5134 33.2634C20.3181 33.4588 20.2083 33.7237 20.2083 34V38.1667C20.2083 38.4429 20.3181 38.7079 20.5134 38.9032C20.7088 39.0986 20.9737 39.2083 21.25 39.2083H25.4167C25.6929 39.2083 25.9579 39.0986 26.1532 38.9032C26.3486 38.7079 26.4583 38.4429 26.4583 38.1667V34C26.4583 33.7237 26.3486 33.4588 26.1532 33.2634C25.9579 33.0681 25.6929 32.9583 25.4167 32.9583H21.25ZM36.875 35.0417C36.875 35.8705 36.5458 36.6653 35.9597 37.2514C35.3737 37.8374 34.5788 38.1667 33.75 38.1667C32.9212 38.1667 32.1263 37.8374 31.5403 37.2514C30.9542 36.6653 30.625 35.8705 30.625 35.0417C30.625 34.2129 30.9542 33.418 31.5403 32.832C32.1263 32.2459 32.9212 31.9167 33.75 31.9167C34.5788 31.9167 35.3737 32.2459 35.9597 32.832C36.5458 33.418 36.875 34.2129 36.875 35.0417ZM33.75 39.5396C31.6635 39.5396 27.5 40.65 27.5 42.8542V45.4583H40V42.8542C40 40.65 35.8365 39.5396 33.75 39.5396Z" fill="white"/>
</svg>
