<svg width="60" height="60" viewBox="0 0 60 60" fill="none" xmlns="http://www.w3.org/2000/svg">
<circle cx="30" cy="30" r="30" fill="#EE413F" fill-opacity="0.6"/>
<path opacity="0.3" d="M29.5425 45.7281C29.205 46.0656 28.605 46.1219 28.2113 45.7281C28.0356 45.5511 27.9371 45.3119 27.9371 45.0625C27.9371 44.8131 28.0356 44.5739 28.2113 44.3969L34.5675 38.0406L31.9238 35.3969L25.5675 41.7531C25.2113 42.1281 24.6113 42.1094 24.2363 41.7531C24.0606 41.5761 23.9621 41.3369 23.9621 41.0875C23.9621 40.8381 24.0606 40.5989 24.2363 40.4219L30.5925 34.0656L27.9488 31.4219L21.5925 37.7781C21.255 38.1156 20.655 38.1719 20.2613 37.7781C20.0896 37.599 19.9937 37.3606 19.9937 37.1125C19.9937 36.8644 20.0896 36.6259 20.2613 36.4469L26.6175 30.0906L23.955 27.4469L17.5988 33.8031C17.2613 34.1406 16.6613 34.1969 16.2675 33.8031C16.0958 33.624 16 33.3856 16 33.1375C16 32.8894 16.0958 32.651 16.2675 32.4719L24.48 24.2594L27.9863 27.7469C29.7675 29.5281 32.8425 29.5094 34.6238 27.7469C36.4613 25.9094 36.4613 22.9469 34.6238 21.1094L31.1363 17.6219L31.6613 17.0969C33.1238 15.6344 35.505 15.6344 36.9675 17.0969L44.9175 25.0469C46.38 26.5094 46.38 28.8906 44.9175 30.3531L29.5425 45.7281Z" fill="white"/>
<path d="M31.0451 45.4684C30.7076 45.8059 30.1076 45.8622 29.7139 45.4684C29.5382 45.2914 29.4397 45.0522 29.4397 44.8028C29.4397 44.5535 29.5382 44.3142 29.7139 44.1372L36.0701 37.7809L33.4264 35.1372L27.0701 41.4934C26.7139 41.8684 26.1139 41.8497 25.7389 41.4934C25.5632 41.3164 25.4647 41.0772 25.4647 40.8278C25.4647 40.5785 25.5632 40.3392 25.7389 40.1622L32.0951 33.8059L29.4514 31.1622L23.0951 37.5184C22.7576 37.8559 22.1576 37.9122 21.7639 37.5184C21.5922 37.3394 21.4964 37.1009 21.4964 36.8528C21.4964 36.6048 21.5922 36.3663 21.7639 36.1872L28.1201 29.8309L25.4576 27.1872L19.1014 33.5434C18.7639 33.8809 18.1639 33.9372 17.7701 33.5434C17.5985 33.3644 17.5026 33.1259 17.5026 32.8778C17.5026 32.6298 17.5985 32.3913 17.7701 32.2122L25.9826 23.9997L29.4889 27.4872C31.2701 29.2684 34.3451 29.2497 36.1264 27.4872C37.9639 25.6497 37.9639 22.6872 36.1264 20.8497L32.6389 17.3622L33.1639 16.8372C34.6264 15.3747 37.0076 15.3747 38.4701 16.8372L46.4201 24.7872C47.8826 26.2497 47.8826 28.6309 46.4201 30.0934L31.0451 45.4684ZM49.0639 32.7559C50.4685 31.3472 51.2573 29.439 51.2573 27.4497C51.2573 25.4603 50.4685 23.5522 49.0639 22.1434L41.1139 14.1934C39.7052 12.7888 37.797 12 35.8076 12C33.8183 12 31.9101 12.7888 30.5014 14.1934L29.9764 14.7184L29.4514 14.1934C28.0427 12.7888 26.1345 12 24.1451 12C22.1558 12 20.2476 12.7888 18.8389 14.1934L12.2014 20.8309C10.9329 22.0951 10.1598 23.772 10.0221 25.5575C9.88453 27.343 10.3916 29.1187 11.4514 30.5622L14.1701 27.8434C13.8077 27.1357 13.6795 26.3312 13.8043 25.5459C13.929 24.7606 14.3 24.0353 14.8639 23.4747L21.5014 16.8372C22.9639 15.3747 25.3451 15.3747 26.8076 16.8372L33.4826 23.5122C33.8201 23.8497 33.8764 24.4497 33.4826 24.8434C33.0889 25.2372 32.4889 25.1809 32.1514 24.8434L25.9826 18.6934L15.1076 29.5497C13.2701 31.3684 13.2701 34.3497 15.1076 36.1872C15.8389 36.9184 16.7764 37.3684 17.7701 37.4997C17.9014 38.5079 18.3625 39.4445 19.0814 40.1634C19.8004 40.8824 20.7369 41.3434 21.7451 41.4747C21.8764 42.4829 22.3375 43.4195 23.0564 44.1384C23.7754 44.8574 24.7119 45.3184 25.7201 45.4497C25.8514 46.4622 26.3014 47.3809 27.0326 48.1122C27.9139 48.9934 29.0951 49.4809 30.3514 49.4809C31.6076 49.4809 32.7889 48.9934 33.6701 48.1122L49.0639 32.7559Z" fill="white"/>
</svg>
