<svg width="27" height="27" viewBox="0 0 27 27" fill="none" xmlns="http://www.w3.org/2000/svg">
<path d="M12.0417 16.4167C12.6162 16.4167 13.1851 16.3035 13.7159 16.0836C14.2467 15.8638 14.729 15.5415 15.1353 15.1353C15.5415 14.729 15.8638 14.2467 16.0836 13.7159C16.3035 13.1851 16.4167 12.6162 16.4167 12.0417C16.4167 11.4671 16.3035 10.8982 16.0836 10.3674C15.8638 9.83663 15.5415 9.35433 15.1353 8.94807C14.729 8.54182 14.2467 8.21956 13.7159 7.99969C13.1851 7.77983 12.6162 7.66667 12.0417 7.66667C10.8813 7.66667 9.76855 8.1276 8.94807 8.94807C8.1276 9.76855 7.66667 10.8813 7.66667 12.0417C7.66667 13.202 8.1276 14.3148 8.94807 15.1353C9.76855 15.9557 10.8813 16.4167 12.0417 16.4167ZM0.375 5.11458C0.375 3.85757 0.874347 2.65204 1.76319 1.76319C2.65204 0.874347 3.85757 0.375 5.11458 0.375H21.8854C23.1424 0.375 24.348 0.874347 25.2368 1.76319C26.1257 2.65204 26.625 3.85757 26.625 5.11458V21.8854C26.625 23.1424 26.1257 24.348 25.2368 25.2368C24.348 26.1257 23.1424 26.625 21.8854 26.625H5.11458C3.85757 26.625 2.65204 26.1257 1.76319 25.2368C0.874347 24.348 0.375 23.1424 0.375 21.8854V5.11458ZM12.0417 18.6042C13.4045 18.6061 14.7338 18.1819 15.8435 17.3908L19.6542 21.2C19.7543 21.3075 19.875 21.3937 20.0092 21.4534C20.1434 21.5132 20.2882 21.5454 20.4351 21.5479C20.5819 21.5505 20.7278 21.5235 20.864 21.4685C21.0002 21.4135 21.1239 21.3316 21.2278 21.2278C21.3316 21.1239 21.4135 21.0002 21.4685 20.864C21.5235 20.7278 21.5505 20.5819 21.5479 20.4351C21.5454 20.2882 21.5132 20.1434 21.4534 20.0092C21.3937 19.875 21.3075 19.7543 21.2 19.6542L17.3908 15.8435C18.2431 14.6444 18.6678 13.1937 18.5966 11.7243C18.5255 10.2549 17.9627 8.85203 16.9986 7.74087C16.0344 6.6297 14.7249 5.8747 13.2802 5.59708C11.8355 5.31946 10.3395 5.53531 9.03216 6.20999C7.72486 6.88467 6.68217 7.97904 6.07147 9.31742C5.46077 10.6558 5.31748 12.1606 5.66461 13.5902C6.01173 15.0197 6.82914 16.2912 7.98561 17.2005C9.14208 18.1098 10.5705 18.6041 12.0417 18.6042Z" fill="#666666"/>
</svg>
