<svg width="40" height="40" viewBox="0 0 40 40" fill="none" xmlns="http://www.w3.org/2000/svg">
<g clip-path="url(#clip0_14_201)">
<path d="M18.25 15.475V28.75C18.25 29.2141 18.4344 29.6592 18.7626 29.9874C19.0908 30.3156 19.5359 30.5 20 30.5C20.4641 30.5 20.9092 30.3156 21.2374 29.9874C21.5656 29.6592 21.75 29.2141 21.75 28.75V15.475L26.2614 19.9885L26.2614 19.9886C26.5899 20.317 27.0355 20.5016 27.5 20.5016C27.9645 20.5016 28.4101 20.317 28.7386 19.9886C29.067 19.6601 29.2516 19.2145 29.2516 18.75C29.2516 18.2855 29.067 17.8399 28.7386 17.5114L21.239 10.0119C21.2389 10.0117 21.2387 10.0116 21.2386 10.0114C21.0761 9.84868 20.8831 9.71954 20.6707 9.6314C20.4581 9.54318 20.2302 9.49777 20 9.49777C19.7698 9.49777 19.5419 9.54318 19.3293 9.6314C19.1169 9.71954 18.9239 9.84869 18.7614 10.0114C18.7613 10.0116 18.7611 10.0117 18.761 10.0119L11.2614 17.5114C10.933 17.8399 10.7484 18.2855 10.7484 18.75C10.7484 19.2145 10.933 19.6601 11.2614 19.9886C11.5899 20.317 12.0355 20.5016 12.5 20.5016C12.9645 20.5016 13.4101 20.317 13.7386 19.9886L13.7386 19.9885L18.25 15.475ZM33.7886 6.21142C37.4455 9.86838 39.5 14.8283 39.5 20C39.5 25.1717 37.4455 30.1316 33.7886 33.7886C30.1316 37.4455 25.1717 39.5 20 39.5C14.8283 39.5 9.86838 37.4455 6.21142 33.7886C2.55446 30.1316 0.5 25.1717 0.5 20C0.5 14.8283 2.55446 9.86838 6.21142 6.21142C9.86838 2.55446 14.8283 0.5 20 0.5C25.1717 0.5 30.1316 2.55446 33.7886 6.21142Z" fill="#EE413F" stroke="white"/>
</g>
<defs>
<clipPath id="clip0_14_201">
<rect width="40" height="40" fill="white"/>
</clipPath>
</defs>
</svg>
